<mxfile host="Electron" modified="2024-01-05T09:10:12.024Z" agent="Mozilla/5.0 (Windows NT 10.0; Win64; x64) AppleWebKit/537.36 (KHTML, like Gecko) draw.io/22.1.2 Chrome/114.0.5735.289 Electron/25.9.4 Safari/537.36" etag="Vt48xR5UA0S0x-JutNK2" version="22.1.2" type="device">
  <diagram name="페이지-1" id="plph2EfhG9sutQuXPi2c">
    <mxGraphModel dx="1434" dy="836" grid="1" gridSize="10" guides="1" tooltips="1" connect="1" arrows="1" fold="1" page="1" pageScale="1" pageWidth="827" pageHeight="1169" math="0" shadow="0">
      <root>
        <mxCell id="0" />
        <mxCell id="1" parent="0" />
        <mxCell id="AmZw-0AWZjHrPDbssa3v-1" value="데이터 자료형" style="rounded=1;whiteSpace=wrap;html=1;" parent="1" vertex="1">
          <mxGeometry x="40" y="20" width="120" height="60" as="geometry" />
        </mxCell>
        <mxCell id="AmZw-0AWZjHrPDbssa3v-3" value="MySQL" style="rounded=0;whiteSpace=wrap;html=1;" parent="1" vertex="1">
          <mxGeometry x="40" y="100" width="80" height="320" as="geometry" />
        </mxCell>
        <mxCell id="AmZw-0AWZjHrPDbssa3v-4" value="정수형" style="rounded=0;whiteSpace=wrap;html=1;" parent="1" vertex="1">
          <mxGeometry x="120" y="100" width="80" height="40" as="geometry" />
        </mxCell>
        <mxCell id="AmZw-0AWZjHrPDbssa3v-5" value="int(m), integer(m)&lt;br&gt;-2147483648 ~ 2147483647 / 0 ~ 4294967295" style="rounded=0;whiteSpace=wrap;html=1;" parent="1" vertex="1">
          <mxGeometry x="200" y="100" width="260" height="40" as="geometry" />
        </mxCell>
        <mxCell id="AmZw-0AWZjHrPDbssa3v-6" value="실수형" style="rounded=0;whiteSpace=wrap;html=1;" parent="1" vertex="1">
          <mxGeometry x="120" y="140" width="80" height="40" as="geometry" />
        </mxCell>
        <mxCell id="AmZw-0AWZjHrPDbssa3v-7" value="float(m(자릿수),d(소숫점 뒤의 자리 수)&lt;br&gt;ex) float(7,4) : 999.9999" style="rounded=0;whiteSpace=wrap;html=1;" parent="1" vertex="1">
          <mxGeometry x="200" y="140" width="260" height="40" as="geometry" />
        </mxCell>
        <mxCell id="AmZw-0AWZjHrPDbssa3v-9" value="char(n(글자수))&lt;br&gt;0~255 길이의 고정 데이터" style="rounded=0;whiteSpace=wrap;html=1;" parent="1" vertex="1">
          <mxGeometry x="200" y="180" width="260" height="40" as="geometry" />
        </mxCell>
        <mxCell id="AmZw-0AWZjHrPDbssa3v-10" value="문자열" style="rounded=0;whiteSpace=wrap;html=1;" parent="1" vertex="1">
          <mxGeometry x="120" y="180" width="80" height="80" as="geometry" />
        </mxCell>
        <mxCell id="AmZw-0AWZjHrPDbssa3v-11" value="varchar(n(글자수))&lt;br&gt;0~65,535 길이까지 가변적 데이터" style="rounded=0;whiteSpace=wrap;html=1;" parent="1" vertex="1">
          <mxGeometry x="200" y="220" width="260" height="40" as="geometry" />
        </mxCell>
        <mxCell id="AmZw-0AWZjHrPDbssa3v-13" value="Numeric&lt;br&gt;Data Type Syntax" style="rounded=0;whiteSpace=wrap;html=1;" parent="1" vertex="1">
          <mxGeometry x="120" y="260" width="80" height="160" as="geometry" />
        </mxCell>
        <mxCell id="AmZw-0AWZjHrPDbssa3v-14" value="BIT(M) / 비트 값 유형" style="rounded=0;whiteSpace=wrap;html=1;" parent="1" vertex="1">
          <mxGeometry x="200" y="260" width="260" height="40" as="geometry" />
        </mxCell>
        <mxCell id="AmZw-0AWZjHrPDbssa3v-15" value="TINYINT" style="rounded=0;whiteSpace=wrap;html=1;" parent="1" vertex="1">
          <mxGeometry x="200" y="300" width="260" height="40" as="geometry" />
        </mxCell>
        <mxCell id="AmZw-0AWZjHrPDbssa3v-16" value="등등...." style="rounded=0;whiteSpace=wrap;html=1;" parent="1" vertex="1">
          <mxGeometry x="200" y="340" width="260" height="80" as="geometry" />
        </mxCell>
        <mxCell id="AmZw-0AWZjHrPDbssa3v-17" value="Oracle" style="rounded=0;whiteSpace=wrap;html=1;" parent="1" vertex="1">
          <mxGeometry x="520" y="100" width="80" height="320" as="geometry" />
        </mxCell>
        <mxCell id="AmZw-0AWZjHrPDbssa3v-22" value="CHAR(n(byte)) : 고정크기 문자열" style="rounded=0;whiteSpace=wrap;html=1;" parent="1" vertex="1">
          <mxGeometry x="680" y="100" width="280" height="40" as="geometry" />
        </mxCell>
        <mxCell id="AmZw-0AWZjHrPDbssa3v-23" value="문자열" style="rounded=0;whiteSpace=wrap;html=1;" parent="1" vertex="1">
          <mxGeometry x="600" y="100" width="80" height="160" as="geometry" />
        </mxCell>
        <mxCell id="AmZw-0AWZjHrPDbssa3v-24" value="NCHAR(n(byte)) : 고정,한글을 2byte로 저장" style="rounded=0;whiteSpace=wrap;html=1;" parent="1" vertex="1">
          <mxGeometry x="680" y="220" width="280" height="40" as="geometry" />
        </mxCell>
        <mxCell id="AmZw-0AWZjHrPDbssa3v-25" value="숫자" style="rounded=0;whiteSpace=wrap;html=1;" parent="1" vertex="1">
          <mxGeometry x="600" y="260" width="80" height="160" as="geometry" />
        </mxCell>
        <mxCell id="AmZw-0AWZjHrPDbssa3v-26" value="BIT(M) / 비트 값 유형" style="rounded=0;whiteSpace=wrap;html=1;" parent="1" vertex="1">
          <mxGeometry x="680" y="260" width="280" height="40" as="geometry" />
        </mxCell>
        <mxCell id="AmZw-0AWZjHrPDbssa3v-27" value="TINYINT" style="rounded=0;whiteSpace=wrap;html=1;" parent="1" vertex="1">
          <mxGeometry x="680" y="300" width="280" height="40" as="geometry" />
        </mxCell>
        <mxCell id="AmZw-0AWZjHrPDbssa3v-28" value="등등...." style="rounded=0;whiteSpace=wrap;html=1;" parent="1" vertex="1">
          <mxGeometry x="680" y="340" width="280" height="80" as="geometry" />
        </mxCell>
        <mxCell id="AmZw-0AWZjHrPDbssa3v-29" value="VARCHAR2(n(byte)) : 가변 크기 문자열" style="rounded=0;whiteSpace=wrap;html=1;" parent="1" vertex="1">
          <mxGeometry x="680" y="140" width="280" height="40" as="geometry" />
        </mxCell>
        <mxCell id="AmZw-0AWZjHrPDbssa3v-30" value="NVARCHAR(n(byte)) : 가변,한글을 2byte로 저장" style="rounded=0;whiteSpace=wrap;html=1;" parent="1" vertex="1">
          <mxGeometry x="680" y="180" width="280" height="40" as="geometry" />
        </mxCell>
      </root>
    </mxGraphModel>
  </diagram>
</mxfile>
